<svg xmlns="http://www.w3.org/2000/svg" width="20.01" height="20.01" viewBox="0 0 20.01 20.01"><path d="M11.175,5.838A5.329,5.329,0,1,0,16.5,11.167a5.328,5.328,0,0,0-5.329-5.329Zm0,8.788a3.459,3.459,0,1,1,3.459-3.459A3.458,3.458,0,0,1,11.175,14.626Z" transform="translate(-1.167 -1.166)" fill="#fefefe"/><path d="M14.13.063c-1.841-.086-6.4-.082-8.243,0a5.979,5.979,0,0,0-4.2,1.618C-.236,3.606.01,6.2.01,10c0,3.892-.217,6.425,1.678,8.32C3.62,20.253,6.251,20,10.008,20c3.855,0,5.186,0,6.549-.525,1.853-.72,3.252-2.376,3.389-5.352.087-1.842.082-6.4,0-8.243C19.782,2.367,17.9.237,14.13.063Zm2.914,16.985C15.783,18.31,14.033,18.2,9.984,18.2c-4.169,0-5.84.062-7.06-1.161-1.4-1.4-1.151-3.643-1.151-7.048,0-4.606-.473-7.924,4.15-8.161,1.062-.038,1.375-.05,4.049-.05l.038.025c4.443,0,7.929-.465,8.138,4.157.048,1.055.058,1.372.058,4.041C18.206,14.121,18.284,15.8,17.044,17.049Z" transform="translate(0 -0.001)" fill="#fefefe"/></svg>