<svg xmlns="http://www.w3.org/2000/svg" xmlns:xlink="http://www.w3.org/1999/xlink" width="221.862" height="57.35" viewBox="0 0 221.862 57.35"><defs><linearGradient id="a" y1="0.5" x2="1" y2="0.5" gradientUnits="objectBoundingBox"><stop offset="0" stop-color="#ff403b"/><stop offset="0.997" stop-color="#ff8b27"/><stop offset="1" stop-color="#ff8b27"/></linearGradient><linearGradient id="b" y1="0.5" x2="1" y2="0.5" gradientUnits="objectBoundingBox"><stop offset="0" stop-color="#6b1c18"/><stop offset="1" stop-color="#fff"/></linearGradient><linearGradient id="c" y1="0.5" x2="1" y2="0.5" gradientUnits="objectBoundingBox"><stop offset="0" stop-color="#ff8b27"/><stop offset="0.003" stop-color="#ff8b27"/><stop offset="1" stop-color="#ff403b"/></linearGradient><linearGradient id="d" y1="0.5" x2="1" y2="0.5" gradientUnits="objectBoundingBox"><stop offset="0" stop-color="#fff"/><stop offset="1" stop-color="#6b1c18"/></linearGradient></defs><g transform="translate(-191.185 -282.527)"><path d="M848.737,465.442q.742-.424,1.165.476l.795,1.961q.16.582-.582.953a18.383,18.383,0,0,1-8.529,1.96q-6.516,0-10.278-3.841t-3.762-10.463q0-6.887,3.391-10.648a11.851,11.851,0,0,1,9.271-3.761q5.721,0,8.873,3.523a13.343,13.343,0,0,1,3.152,9.245V457.5q0,.848-.9.848H831.784a9.028,9.028,0,0,0,2.967,6.357,10.118,10.118,0,0,0,7.046,2.437,14.72,14.72,0,0,0,6.94-1.695m-16.953-10.648H848.1v-.265a9.611,9.611,0,0,0-2.013-6.41,7.266,7.266,0,0,0-5.88-2.384q-7.947,0-8.424,9.059" transform="translate(-544.542 -136.532)" fill="#fff"/><path d="M1049.68,467.89a.89.89,0,0,1-1.007,1.007h-3.443a.889.889,0,0,1-1.006-1.007V451.361a6.8,6.8,0,0,0-1.219-4.4,4.929,4.929,0,0,0-4.026-1.483,6.679,6.679,0,0,0-5.06,1.907,6.972,6.972,0,0,0-1.827,5.033V467.89a.89.89,0,0,1-1.006,1.007h-3.443q-1.06,0-1.06-1.007V442.25q0-1.007,1.06-1.006h3.284q1.06,0,1.06.9l.106,3.179a7.76,7.76,0,0,1,3.019-3.311,10.078,10.078,0,0,1,5.563-1.4q6.41,0,8.158,4.927,2.7-4.926,9.43-4.927,4.45,0,6.728,2.623a10.744,10.744,0,0,1,2.278,7.284V467.89a.89.89,0,0,1-1.006,1.007h-3.444a.89.89,0,0,1-1.007-1.007V451.414a6.9,6.9,0,0,0-1.218-4.45q-1.219-1.483-4.079-1.483a6.73,6.73,0,0,0-4.979,1.854A6.323,6.323,0,0,0,1049.68,452Z" transform="translate(-714.859 -135.271)" fill="#fff"/><path d="M1343.769,414.483a1.057,1.057,0,0,1-1.219,1.006h-4.185a1.077,1.077,0,0,1-1.219-1.219V379.359q0-1.165,1.219-1.165h4.555q1.219,0,1.219,1.165v11.973a7.582,7.582,0,0,1,3.55-3.232,12.121,12.121,0,0,1,5.3-1.165q5.615,0,8.714,3.682t3.1,10.886q0,7.205-3.1,10.887t-8.714,3.682a12.531,12.531,0,0,1-5.43-1.165,7.7,7.7,0,0,1-3.629-3.338Zm7.205-4.079a6,6,0,0,0,5.032-2.093q1.642-2.092,1.643-6.808t-1.643-6.807a6,6,0,0,0-5.032-2.093q-6.834,0-6.834,8.9t6.834,8.9" transform="translate(-980.613 -81.864)" fill="#fff"/><path d="M1554.763,466.877q-1.642,5.139-3.761,7.02t-7.2,1.881a21.066,21.066,0,0,1-5.669-.583q-1.43-.318-1.377-1.484l.211-3.5a1.131,1.131,0,0,1,1.271-1.219q.159,0,1.219.159a13.583,13.583,0,0,0,2.013.159,2.769,2.769,0,0,0,2.41-.874,2.244,2.244,0,0,0,.027-2.251l-9.218-23.151a1.449,1.449,0,0,1,0-1.218,1.046,1.046,0,0,1,1.006-.477h5.934a1.687,1.687,0,0,1,1.8,1.324l3.708,11.549,2.013,7.417h.159l1.643-7.417,2.86-11.549a1.577,1.577,0,0,1,1.7-1.324h5.828a1.178,1.178,0,0,1,1.06.477,1.417,1.417,0,0,1,.106,1.218Z" transform="translate(-1149.536 -135.901)" fill="#fff"/><path d="M735.061,441.418a.6.6,0,0,1,.683.663v6.074a11.3,11.3,0,0,1,3.5-4.666,9.606,9.606,0,0,1,6.405-2.181q.569,0,.569.5v2.375a.546.546,0,0,1-.627.608q-.057,0-.4-.056a4.313,4.313,0,0,0-.683-.055,7.7,7.7,0,0,0-6.149,3.286,11.529,11.529,0,0,0-2.619,7.372v13.751a.6.6,0,0,1-.683.663h-1.936q-.74,0-.74-.663v-26.95a.644.644,0,0,1,.74-.718Z" transform="translate(-463.111 -135.87)" fill="#fff"/><g transform="translate(191.185 282.527)"><path d="M224.23,304.51H212.692A11,11,0,0,0,223,293.531c0-.428-.105-1.52-.123-1.647a19.514,19.514,0,0,0-.614-2.313,11.008,11.008,0,0,0-12.423-6.832c-11.647,1.468-18.657,13.2-18.657,25.468a25.7,25.7,0,0,0,25.624,25.624l7.422-.056a14.632,14.632,0,1,0,0-29.264Z" transform="translate(-191.185 -282.527)" fill="url(#a)"/><circle cx="11.004" cy="11.004" r="11.004" transform="translate(9.809 0)" opacity="0.7" fill="url(#b)" style="mix-blend-mode:multiply;isolation:isolate"/><path d="M476.224,415.489a4.831,4.831,0,0,0-1.326-.017,4.987,4.987,0,0,0-2.284.829c-.022.014-.045.027-.067.042-.074.051-.145.107-.216.162s-.144.107-.212.164c-.018.015-.035.032-.053.048a5.29,5.29,0,0,0-.946,1.067,5.013,5.013,0,0,0-.88,2.786h0l.006.007c0,.042-.006.082-.006.124a5.266,5.266,0,0,0,5.245,5.265l.022.023h-7.984a7.035,7.035,0,1,0,0,14.07l5.686.027a12.356,12.356,0,0,0,12.32-12.32C485.527,421.752,482.022,416.009,476.224,415.489Z" transform="translate(-421.629 -396.257)" fill="url(#c)"/><circle cx="5.267" cy="5.267" r="5.267" transform="translate(48.61 19.177)" opacity="0.7" fill="url(#d)" style="mix-blend-mode:multiply;isolation:isolate"/><path d="M469.305,495.464h0a14.5,14.5,0,0,0-1.734-6.884h-.052a7.034,7.034,0,0,0-.116,14.068,14.5,14.5,0,0,0,1.9-7.183" transform="translate(-421.627 -458.849)" fill="#e0321b"/></g></g></svg>