<svg width="65" height="42" viewBox="0 0 65 42" fill="none" xmlns="http://www.w3.org/2000/svg">
    <path d="M2.06882 28.4516C1.30925 28.4516 0.76956 28.0502 0.449743 27.2473C0.149914 26.4444 0 25.1599 0 23.3935C0 20.7842 0.369788 18.3054 1.10937 15.957C1.28926 15.3749 1.5791 14.9534 1.97887 14.6925C2.39863 14.4115 2.9783 14.271 3.71787 14.271C4.11764 14.271 4.39748 14.3211 4.55739 14.4215C4.7173 14.5219 4.79726 14.7125 4.79726 14.9935C4.79726 15.3147 4.64734 16.0373 4.34751 17.1613C4.14763 17.9642 3.98772 18.6667 3.86779 19.2688C3.74786 19.8509 3.64791 20.5835 3.56796 21.4667C4.10765 19.9011 4.74728 18.5763 5.48686 17.4925C6.24643 16.4086 7.01599 15.6057 7.79554 15.0839C8.59508 14.5419 9.34465 14.271 10.0443 14.271C10.7439 14.271 11.2336 14.4315 11.5134 14.7527C11.8132 15.0738 11.9632 15.5656 11.9632 16.228C11.9632 16.8703 11.7733 18.0344 11.3935 19.7204C11.2336 20.443 11.1236 20.9849 11.0637 21.3462C12.0631 18.8774 13.1725 17.081 14.3918 15.957C15.6111 14.833 16.7504 14.271 17.8098 14.271C19.1091 14.271 19.7587 14.9233 19.7587 16.228C19.7587 17.0108 19.5388 18.4258 19.0991 20.4731C18.7193 22.2194 18.5294 23.3735 18.5294 23.9355C18.5294 24.7384 18.8192 25.1398 19.3989 25.1398C19.7987 25.1398 20.2684 24.8989 20.8081 24.4172C21.3678 23.9154 22.1074 23.1125 23.0268 22.0086C23.2667 21.7276 23.5365 21.5871 23.8364 21.5871C24.0962 21.5871 24.2961 21.7075 24.436 21.9484C24.5959 22.1892 24.6759 22.5204 24.6759 22.9419C24.6759 23.7448 24.486 24.367 24.1062 24.8086C23.2467 25.8724 22.3172 26.7455 21.3178 27.428C20.3384 28.1104 19.219 28.4516 17.9597 28.4516C16.9403 28.4516 16.1707 28.1606 15.651 27.5785C15.1313 26.9763 14.8715 26.1133 14.8715 24.9892C14.8715 24.4272 15.0114 23.4237 15.2913 21.9785C15.5511 20.714 15.681 19.8409 15.681 19.3591C15.681 19.038 15.5711 18.8774 15.3512 18.8774C15.0914 18.8774 14.7216 19.2186 14.2419 19.9011C13.7621 20.5634 13.2824 21.4466 12.8027 22.5505C12.3229 23.6545 11.9332 24.8186 11.6333 26.043C11.4135 27.0065 11.1536 27.6487 10.8538 27.9699C10.574 28.291 10.1142 28.4516 9.47458 28.4516C8.81496 28.4516 8.31524 28.1405 7.97544 27.5183C7.65562 26.876 7.49571 26.1032 7.49571 25.2C7.49571 24.4373 7.59565 23.3333 7.79554 21.8882C7.95545 20.6036 8.0354 19.7606 8.0354 19.3591C8.0354 19.038 7.92547 18.8774 7.70559 18.8774C7.40576 18.8774 7.02598 19.2387 6.56624 19.9613C6.10651 20.6839 5.65676 21.6072 5.21702 22.7312C4.79726 23.8552 4.45745 24.9591 4.1976 26.043C3.97772 26.9864 3.71787 27.6287 3.41804 27.9699C3.1382 28.291 2.68846 28.4516 2.06882 28.4516Z" fill="white"/>
    <path d="M37.6027 21.6473C37.8626 21.6473 38.0624 21.7778 38.2024 22.0387C38.3623 22.2796 38.4422 22.5907 38.4422 22.972C38.4422 23.4337 38.3723 23.795 38.2323 24.0559C38.0924 24.3168 37.8726 24.5477 37.5727 24.7484L31.816 28.6323C31.0565 32.7871 30.057 36.0487 28.8177 38.4172C27.5984 40.8057 26.0393 42 24.1404 42C23.121 42 22.2915 41.6789 21.6518 41.0366C21.0122 40.4143 20.6924 39.5914 20.6924 38.5677C20.6924 37.6244 20.9023 36.6609 21.322 35.6774C21.7618 34.6939 22.5613 33.5599 23.7206 32.2753C24.9 31.0108 26.559 29.5556 28.6978 27.9097L28.7877 27.2172C28.9277 26.4746 29.0876 25.4108 29.2675 24.0258C28.8677 25.471 28.308 26.5749 27.5884 27.3376C26.8688 28.0803 26.1093 28.4516 25.3097 28.4516C24.4103 28.4516 23.6707 28.0401 23.091 27.2172C22.5313 26.3742 22.2515 25.3305 22.2515 24.086C22.2515 22.5806 22.3514 21.2057 22.5513 19.9613C22.7512 18.6968 23.081 17.362 23.5408 15.957C23.7406 15.3548 24.0205 14.9233 24.3803 14.6624C24.7401 14.4014 25.3097 14.271 26.0893 14.271C26.529 14.271 26.8289 14.3412 26.9888 14.4817C27.1687 14.6222 27.2586 14.833 27.2586 15.114C27.2586 15.2746 27.1487 15.8165 26.9288 16.7398C26.7289 17.4824 26.569 18.1548 26.4491 18.757C26.2892 19.5799 26.1493 20.3728 26.0293 21.1355C25.9094 21.8781 25.8494 22.4903 25.8494 22.972C25.8494 23.7348 26.0593 24.1161 26.4791 24.1161C26.7789 24.1161 27.1487 23.8151 27.5884 23.2129C28.0482 22.6108 28.5279 21.6975 29.0276 20.4731C29.5473 19.2487 30.047 17.7434 30.5268 15.957C30.6867 15.3548 30.9265 14.9233 31.2463 14.6624C31.5861 14.4014 32.0859 14.271 32.7455 14.271C33.2052 14.271 33.525 14.3312 33.7049 14.4516C33.8848 14.572 33.9748 14.7728 33.9748 15.0538C33.9748 15.5556 33.7149 17.2817 33.1952 20.2323L32.4157 25.0796C33.9548 23.9154 35.4539 22.8516 36.9131 21.8882C37.173 21.7276 37.4028 21.6473 37.6027 21.6473ZM24.4702 39.0796C24.9699 39.0796 25.5296 38.4975 26.1493 37.3333C26.7689 36.1692 27.3885 34.2323 28.0082 31.5226C26.4691 32.8272 25.3497 34.0115 24.6501 35.0753C23.9705 36.1591 23.6307 37.1025 23.6307 37.9054C23.6307 38.2466 23.6907 38.5276 23.8106 38.7484C23.9505 38.9692 24.1704 39.0796 24.4702 39.0796Z" fill="white"/>
    <path d="M47.9763 19.871C48.536 19.871 48.8158 20.2925 48.8158 21.1355C48.8158 22.7211 47.5765 23.514 45.0979 23.514C44.6182 23.514 43.9286 23.4237 43.0291 23.243C43.289 24.4875 43.4989 25.8724 43.6588 27.3979C43.8387 28.9032 43.9286 30.1477 43.9286 31.1312C43.9286 33.2989 43.5788 34.9548 42.8792 36.0989C42.1796 37.243 41.2601 37.8151 40.1208 37.8151C38.6816 37.8151 37.6522 36.7914 37.0326 34.7441C36.4329 32.6968 36.1331 29.6057 36.1331 25.471C36.1331 21.6172 36.5428 17.7133 37.3624 13.7591C38.2019 9.78495 39.3412 6.50323 40.7804 3.91398C42.2396 1.30466 43.8387 0 45.5777 0C46.5171 0 47.2467 0.421505 47.7664 1.26452C48.3061 2.10753 48.576 3.24158 48.576 4.66667C48.576 9.38351 45.7676 14.5219 40.1508 20.0817C39.9509 22.0487 39.851 23.7749 39.851 25.2602C39.851 27.3276 39.9209 29.4452 40.0608 31.6129C40.2007 33.8007 40.4306 34.8946 40.7504 34.8946C41.3501 34.8946 41.6499 33.8509 41.6499 31.7634C41.6499 30.1978 41.54 28.6824 41.3201 27.2172C41.1202 25.752 40.8404 24.2065 40.4806 22.5806C40.4606 22.3197 40.5406 21.9885 40.7205 21.5871C40.9203 21.1857 41.1602 20.8344 41.44 20.5333C41.7199 20.2323 41.9697 20.0817 42.1896 20.0817C42.5894 20.0817 43.0691 20.1018 43.6288 20.1419C43.8087 20.162 44.0186 20.172 44.2584 20.172C45.058 20.172 45.9475 20.1018 46.9269 19.9613C47.0868 19.9412 47.2567 19.9211 47.4366 19.9011C47.6165 19.881 47.7964 19.871 47.9763 19.871ZM44.948 2.98065C44.5882 2.98065 44.1385 3.59283 43.5988 4.8172C43.0791 6.04158 42.5594 7.66738 42.0397 9.69462C41.52 11.7018 41.0703 13.8294 40.6905 16.0774C42.2896 14.2509 43.5189 12.3541 44.3784 10.3871C45.2379 8.4 45.6776 6.54337 45.6976 4.8172C45.6976 3.59283 45.4477 2.98065 44.948 2.98065Z" fill="white"/>
    <path d="M52.1308 28.4516C50.2319 28.4516 48.7427 27.8996 47.6634 26.7957C46.604 25.6717 46.0743 24.1964 46.0743 22.3699C46.0743 20.7441 46.3941 19.319 47.0337 18.0946C47.6734 16.8703 48.5029 15.9269 49.5223 15.2645C50.5417 14.6022 51.6111 14.271 52.7305 14.271C53.8298 14.271 54.6793 14.6022 55.279 15.2645C55.8986 15.9068 56.2085 16.7398 56.2085 17.7634C56.2085 18.6065 56.0186 19.319 55.6388 19.9011C55.279 20.4832 54.7993 20.7742 54.1996 20.7742C53.8198 20.7742 53.51 20.6839 53.2701 20.5032C53.0503 20.3226 52.9403 20.0717 52.9403 19.7505C52.9403 19.61 52.9603 19.4495 53.0003 19.2688C53.0403 19.0882 53.0703 18.9577 53.0902 18.8774C53.1902 18.5763 53.2402 18.2953 53.2402 18.0344C53.2402 17.7735 53.1702 17.5728 53.0303 17.4323C52.9104 17.2918 52.7305 17.2215 52.4906 17.2215C52.0309 17.2215 51.6011 17.4323 51.2013 17.8538C50.8016 18.2552 50.4817 18.8072 50.2419 19.5097C50.002 20.2122 49.8821 20.9849 49.8821 21.828C49.8821 22.972 50.112 23.8452 50.5717 24.4473C51.0514 25.0294 51.721 25.3204 52.5805 25.3204C53.2602 25.3204 53.8798 25.1197 54.4395 24.7183C55.0191 24.3168 55.5888 23.7247 56.1485 22.9419C56.3884 22.6409 56.6582 22.4903 56.958 22.4903C57.2179 22.4903 57.4178 22.6108 57.5577 22.8516C57.7176 23.0925 57.7976 23.4237 57.7976 23.8452C57.7976 24.5677 57.6277 25.19 57.2878 25.7118C56.7482 26.5548 56.0386 27.2272 55.1591 27.729C54.2796 28.2108 53.2701 28.4516 52.1308 28.4516Z" fill="white"/>
    <path d="M62.0917 28.4516C61.2122 28.4516 60.5425 28.2108 60.0828 27.729C59.6431 27.2473 59.4232 26.6151 59.4232 25.8323C59.4232 24.929 59.673 24.2065 60.1728 23.6645C60.6925 23.1226 61.4121 22.8516 62.3315 22.8516C63.211 22.8516 63.8706 23.0724 64.3104 23.514C64.7701 23.9355 65 24.5677 65 25.4108C65 26.334 64.7402 27.0767 64.2204 27.6387C63.7007 28.1806 62.9911 28.4516 62.0917 28.4516Z" fill="white"/>
</svg>