<svg xmlns="http://www.w3.org/2000/svg" xmlns:xlink="http://www.w3.org/1999/xlink" width="108.182" height="116.409" viewBox="0 0 108.182 116.409"><defs><linearGradient id="a" y1="0.5" x2="1" y2="0.5" gradientUnits="objectBoundingBox"><stop offset="0" stop-color="#0b3577"/><stop offset="0.997" stop-color="#1959bc"/><stop offset="1" stop-color="#ff8b27"/></linearGradient></defs><g transform="translate(-984 -2758.795)"><path d="M266.165,332.407H239.985a24.965,24.965,0,0,0,23.392-24.913c0-.972-.238-3.449-.279-3.736a44.281,44.281,0,0,0-1.393-5.247,24.978,24.978,0,0,0-28.187-15.5c-26.428,3.33-42.333,29.95-42.333,57.787a58.312,58.312,0,0,0,58.141,58.14l16.84-.128a33.2,33.2,0,1,0,0-66.4Z" transform="translate(792.815 2476.268)" fill="url(#a)"/><g transform="translate(53.145 2251.571)"><path d="M977.7,591.429c-1.011-.145-2.03-.25-3.032-.444a24.92,24.92,0,0,1-16.523-10.9,24.2,24.2,0,0,1-4.135-16.567,24.953,24.953,0,0,1,11.5-18.847,24.189,24.189,0,0,1,10.766-3.9c.15-.018.3-.049.448-.079.075-.013.145-.039.264-.07,0-.532,0-1.059,0-1.591,0-.128-.022-.255-.044-.462-.58,0-1.147.022-1.709,0a2.76,2.76,0,0,1-2.426-4.2,2.669,2.669,0,0,1,2.377-1.332c2.755-.013,5.51-.022,8.266,0a2.752,2.752,0,0,1,.207,5.5c-.584.048-1.173.009-1.841.009V540.7a25.524,25.524,0,0,1,14.7,6.587l2.346-2.355a7.152,7.152,0,0,1-.8-.664,1.615,1.615,0,0,1,.04-2.307,1.6,1.6,0,0,1,2.263.018q1.76,1.707,3.467,3.471a1.606,1.606,0,0,1,0,2.3,1.623,1.623,0,0,1-2.307-.026,7.124,7.124,0,0,1-.558-.642l-2.377,2.36c.237.3.509.642.773.984a23.838,23.838,0,0,1,5.12,12.243c1.125,10.621-2.83,18.939-11.693,24.863a23.521,23.521,0,0,1-11.39,3.8,3.985,3.985,0,0,0-.5.1Zm22.7-25.483a21.124,21.124,0,1,0-21.154,21.124A21.12,21.12,0,0,0,1000.4,565.946Z" transform="translate(0 0)" fill="#fff"/><path d="M962.252,536.5c.514.826,1,1.569,1.441,2.338a1.426,1.426,0,0,1,.083.663q.007,6.1,0,12.2a1,1,0,0,0,.426.905,3.186,3.186,0,0,1,.321,4.654,3.244,3.244,0,0,1-4.763-.013,3.182,3.182,0,0,1,.347-4.649.965.965,0,0,0,.413-.857c-.013-4.065-.017-8.13.009-12.194a2.25,2.25,0,0,1,.352-1.09C961.271,537.811,961.742,537.209,962.252,536.5Z" transform="translate(17.153 11.788)" fill="#fff"/></g></g></svg>