<svg xmlns="http://www.w3.org/2000/svg" xmlns:xlink="http://www.w3.org/1999/xlink" width="108.182" height="116.409" viewBox="0 0 108.182 116.409"><defs><linearGradient id="a" y1="0.5" x2="1" y2="0.5" gradientUnits="objectBoundingBox"><stop offset="0" stop-color="#0b3577"/><stop offset="0.997" stop-color="#1959bc"/><stop offset="1" stop-color="#ff8b27"/></linearGradient></defs><g transform="translate(-320 -2758.795)"><path d="M266.165,332.407H239.985a24.965,24.965,0,0,0,23.392-24.913c0-.972-.238-3.449-.279-3.736a44.281,44.281,0,0,0-1.393-5.247,24.978,24.978,0,0,0-28.187-15.5c-26.428,3.33-42.333,29.95-42.333,57.787a58.312,58.312,0,0,0,58.141,58.14l16.84-.128a33.2,33.2,0,1,0,0-66.4Z" transform="translate(128.815 2476.268)" fill="url(#a)"/><path d="M973.154,674.373c-.276,1.077-.468,2.184-.842,3.225a13.156,13.156,0,0,1-12.112,8.774c-3.782.082-7.567.031-11.351.032q-16.278,0-32.555.007a15.848,15.848,0,0,1-10.821-3.893,15.569,15.569,0,0,1-5.337-10.03,4.792,4.792,0,0,0-.135-.544v-2.572c.229-1.11.389-2.24.7-3.327a15.789,15.789,0,0,1,15.55-11.324c1.062.034,2.12.216,3.126.325,1.483-10.975,7.359-17.791,18.49-19.686,10.736-.7,17.914,4.22,22.191,14.084.276-1.33.628-2.552.77-3.8a16.812,16.812,0,0,0-1.714-9.624c-.064-.127-.125-.256-.189-.384a1.189,1.189,0,0,1,.241-1.556A1.145,1.145,0,0,1,960.68,634a34.975,34.975,0,0,1,4.1,3.074,19.369,19.369,0,0,1,2.932,24.337c-.111.177-.21.362-.025.317.85.992,1.723,1.965,2.546,2.979a13.115,13.115,0,0,1,2.8,6.543c.026.186.086.368.13.551ZM965.8,663.894c-.19.217-.354.421-.536.609a19.418,19.418,0,0,1-26.3,1.716,19.028,19.028,0,0,1-4.769-5.633c-.538-.956-.1-1.943.876-1.949a2.585,2.585,0,0,1,1.075.309,17.022,17.022,0,0,0,20.612-4.012c1.625-1.789,1.675-2.01.97-4.295-.035-.114-.076-.225-.112-.339a18.269,18.269,0,0,0-35.652,5.936c.014,1.524-.6,1.979-2.063,1.551a13.2,13.2,0,0,0-12.28,2.2,13.42,13.42,0,0,0-4.55,14.659,13.228,13.228,0,0,0,12.278,9.281q22.284.094,44.568.013a10.581,10.581,0,0,0,8.811-4.636A10.951,10.951,0,0,0,965.8,663.894Zm-27.082-1.3a16.629,16.629,0,0,0,16.052,5.116c7.061-1.679,11.573-6.154,13.108-13.251,1.332-6.162-.6-11.472-5.063-15.883,1.585,7.2.095,13.613-5.118,18.88C952.44,662.763,946,664.207,938.714,662.592Z" transform="translate(-564.486 2147.249)" fill="#fff"/></g></svg>