<svg xmlns="http://www.w3.org/2000/svg" xmlns:xlink="http://www.w3.org/1999/xlink" width="108.182" height="116.409" viewBox="0 0 108.182 116.409"><defs><linearGradient id="a" y1="0.5" x2="1" y2="0.5" gradientUnits="objectBoundingBox"><stop offset="0" stop-color="#0b3577"/><stop offset="0.997" stop-color="#1959bc"/><stop offset="1" stop-color="#ff8b27"/></linearGradient></defs><g transform="translate(-652 -2758.795)"><path d="M266.165,332.407H239.985a24.965,24.965,0,0,0,23.392-24.913c0-.972-.238-3.449-.279-3.736a44.281,44.281,0,0,0-1.393-5.247,24.978,24.978,0,0,0-28.187-15.5c-26.428,3.33-42.333,29.95-42.333,57.787a58.312,58.312,0,0,0,58.141,58.14l16.84-.128a33.2,33.2,0,1,0,0-66.4Z" transform="translate(460.815 2476.268)" fill="url(#a)"/><g transform="translate(-362.643 2425.334)"><path d="M1080.3,342c1.347.307,2.709.557,4.037.93a27.877,27.877,0,0,1,20.148,23.99c.2,1.953.135,3.934.143,5.9a1.186,1.186,0,0,1-1.185,1.3,1.213,1.213,0,0,1-1.152-1.336c-.043-1.338.007-2.681-.078-4.016-.677-10.593-5.822-18.336-15.532-22.459s-18.919-2.468-26.906,4.509c-5.73,5.005-8.387,11.523-8.482,19.113a58.292,58.292,0,0,1-.233,6.289,16.605,16.605,0,0,1-5,9.849q-1.64,1.647-3.289,3.285a1.357,1.357,0,0,0-.482,1.609,1.408,1.408,0,0,0,1.476.821c1.6-.006,3.2-.012,4.806,0a2.561,2.561,0,0,1,2.729,2.7c.05,2.045-.06,4.109.186,6.13a10.939,10.939,0,0,0,10.2,9.306c2.131.088,4.038.589,5.422,2.366a6.208,6.208,0,0,1,1.275,3.964c0,1.077.014,2.154,0,3.23-.009.506.183.682.7.681q10.951-.019,21.9,0c.586,0,.7-.249.694-.759-.015-2.994.009-5.988-.011-8.982a18.177,18.177,0,0,1,4.417-12.467,24.068,24.068,0,0,0,5.681-11.759c.36-2.081.362-4.225.516-6.341.038-.522,0-1.052.062-1.571a1.134,1.134,0,0,1,2.248.019c.065.914.058,1.835.055,2.753a27.411,27.411,0,0,1-3.819,14.264,36.158,36.158,0,0,1-3.16,4.406,15.736,15.736,0,0,0-3.631,10.322c-.009,3.125,0,6.25,0,9.376,0,2.087-1.007,3.091-3.089,3.092q-10.912,0-21.824,0c-2.07,0-3.079-1.013-3.1-3.1-.01-1.182.031-2.365-.024-3.545a3.413,3.413,0,0,0-3.286-3.471,15.583,15.583,0,0,1-6.371-1.529,13.237,13.237,0,0,1-7.369-11.41c-.11-1.722-.017-3.457-.017-5.272-.352-.019-.629-.046-.905-.046-1.5,0-2.994.009-4.491-.006a3.515,3.515,0,0,1-3.445-2.293,3.454,3.454,0,0,1,.811-3.982c1.556-1.6,3.21-3.116,4.648-4.816a14.923,14.923,0,0,0,3.381-9.682,79.115,79.115,0,0,1,.484-8.552,24.714,24.714,0,0,1,4.478-10.969,27.65,27.65,0,0,1,11.552-9.58,26.743,26.743,0,0,1,7.3-2.113,4.89,4.89,0,0,0,.6-.158Z" transform="translate(0 0)" fill="#fff"/><path d="M1143.831,401.65c.926.069,2.132-.1,2.089,1.274-.039,1.247-1.165,1.108-2.084,1.162a18.058,18.058,0,0,0,1.885,7.023c1.436-.706,1.98-.711,2.405-.044.443.694.191,1.2-1.11,2.136a7.332,7.332,0,0,0,4.309,2.658,10.6,10.6,0,0,0,2.11.188c1.969.024,3.939,0,5.908.013.946.006,1.47.434,1.485,1.161.016.761-.516,1.193-1.508,1.2-1.891.007-3.782-.014-5.672.005-4.829.049-8.184-2.191-10.192-6.531a21.011,21.011,0,0,1,13.431-29.318c11.29-3.15,23.893,4.109,26.159,16.181a20.194,20.194,0,0,1-2.943,15.363,9.335,9.335,0,0,1-7.7,4.259c-2.333.107-4.673.043-7.01.037-.861,0-1.386-.479-1.376-1.182s.541-1.162,1.41-1.17c2.284-.022,4.571.036,6.853-.04a7.522,7.522,0,0,0,5.582-2.8c-.725-.567-1.812-.989-1.083-2.194.386-.638.878-.608,2.37.058a17.93,17.93,0,0,0,1.868-6.966c-.919-.137-2.127.087-2.079-1.387.024-.731.471-.951,2.058-1.1a17.39,17.39,0,0,0-1.836-6.962c-1.6.622-2.069.608-2.451-.055s-.142-1.126,1.171-2.118a18.477,18.477,0,0,0-5.083-5.1c-.561.721-.978,1.895-2.167,1.137-1.078-.687-.327-1.563.032-2.376a17.759,17.759,0,0,0-6.994-1.87c-.073.932.055,2-1.259,2.093-.741.05-1.01-.444-1.226-2.085a17.513,17.513,0,0,0-6.978,1.843c.666,1.527.657,2.064-.022,2.454-.7.4-1.107.168-2.13-1.209a18.573,18.573,0,0,0-5.113,5.109c.715.571,1.9.948,1.141,2.22-.4.665-.976.623-2.361-.093A18.015,18.015,0,0,0,1143.831,401.65Z" transform="translate(-85.552 -33.537)" fill="#fff"/><path d="M1250.635,487.146a4.343,4.343,0,0,1,4.29,4.921.711.711,0,0,0,.431.853c1.665.941,3.316,1.907,4.971,2.864.181.1.369.2.539.324a1.167,1.167,0,1,1-1.189,2.008c-.972-.514-1.914-1.085-2.868-1.632-.477-.274-.978-.514-1.425-.831a2.288,2.288,0,0,0-3.028-.192,4.03,4.03,0,0,1-4.791-.749,4.39,4.39,0,0,1-1.061-4.839A4.341,4.341,0,0,1,1250.635,487.146Zm-.085,6.366a1.97,1.97,0,0,0,2.044-1.931,2.022,2.022,0,0,0-4.042-.131A1.969,1.969,0,0,0,1250.551,493.511Z" transform="translate(-173.734 -122.185)" fill="#fff"/><path d="M1250.584,568.8c-1.021,0-2.043.018-3.064-.006a1.177,1.177,0,1,1-.037-2.338q3.1-.047,6.206,0a1.177,1.177,0,1,1-.041,2.34C1252.627,568.818,1251.606,568.8,1250.584,568.8Z" transform="translate(-173.744 -188.932)" fill="#fff"/></g></g></svg>