<svg xmlns="http://www.w3.org/2000/svg" xmlns:xlink="http://www.w3.org/1999/xlink" width="108.182" height="116.409" viewBox="0 0 108.182 116.409"><defs><linearGradient id="a" y1="0.5" x2="1" y2="0.5" gradientUnits="objectBoundingBox"><stop offset="0" stop-color="#0b3577"/><stop offset="0.997" stop-color="#1959bc"/><stop offset="1" stop-color="#ff8b27"/></linearGradient></defs><g transform="translate(-1316 -2758.795)"><path d="M266.165,332.407H239.985a24.965,24.965,0,0,0,23.392-24.913c0-.972-.238-3.449-.279-3.736a44.281,44.281,0,0,0-1.393-5.247,24.978,24.978,0,0,0-28.187-15.5c-26.428,3.33-42.333,29.95-42.333,57.787a58.312,58.312,0,0,0,58.141,58.14l16.84-.128a33.2,33.2,0,1,0,0-66.4Z" transform="translate(1124.815 2476.268)" fill="url(#a)"/><g transform="translate(125.25 2188.518)"><g transform="translate(1211.841 577.816)"><path d="M791.421,416.072a2,2,0,0,1-.764-1.763c.028-2.455.011-4.911.011-7.366v-.915h-.927q-4.976,0-9.952,0c-1.29,0-1.679-.393-1.68-1.69,0-5.642-.01-11.284.013-16.926a1.146,1.146,0,0,0-.667-1.162c-1.52-.863-3.007-1.784-4.506-2.685-1.26-.757-1.365-1.108-.72-2.4,1.584-3.173,3.127-6.369,4.776-9.509a11.1,11.1,0,0,0,1.248-4.522,33.785,33.785,0,0,1,66.462-5.761c3.247,13.384-.584,24.842-10.864,34.072a1.585,1.585,0,0,0-.608,1.323c.021,5.851,0,11.7.023,17.553a1.933,1.933,0,0,1-.776,1.755h-.784a1.655,1.655,0,0,1-.817-1.638q.028-9.168-.007-18.336a2.416,2.416,0,0,1,.981-2.069,31.48,31.48,0,0,0-7.573-53.313,30.352,30.352,0,0,0-20.674-1.393,31.079,31.079,0,0,0-16.534,11.108,31.449,31.449,0,0,0-6.442,15.894,8.96,8.96,0,0,0-.125,1.795,7.016,7.016,0,0,1-1.052,3.857c-1.537,2.993-3.019,6.014-4.523,9.024-.115.23-.222.464-.372.78,1.2.722,2.381,1.422,3.551,2.139,2.777,1.7,2.319.927,2.335,4.126.024,4.884.006,9.769.006,14.653v.973h.876q5.015,0,10.03,0c1.314,0,1.653.344,1.654,1.679,0,3.03-.014,6.06.012,9.089a1.626,1.626,0,0,1-.83,1.629Z" transform="translate(-771.841 -335.816)" fill="#fff"/><path d="M860.024,404.8a9.962,9.962,0,0,1,.575-4.97,9.946,9.946,0,0,1,16.989-2.717,1.1,1.1,0,0,0,1.369.423,8.6,8.6,0,0,1,10.706,6.544,1.441,1.441,0,0,0,1.114,1.267,9.924,9.924,0,0,1-2.545,19.272c-1.354.078-2.715.067-4.073.059-.955-.006-1.438-.438-1.431-1.188s.488-1.144,1.456-1.162c1.2-.023,2.406.029,3.6-.038a7.636,7.636,0,0,0,7.294-6.988,7.733,7.733,0,0,0-5.585-7.921c-.253-.063-.507-.126-.762-.177a1.294,1.294,0,0,1-1.171-1.336,6.281,6.281,0,0,0-2.346-4.844,6.174,6.174,0,0,0-6.471-.965c-1.448.568-1.627.53-2.47-.791a7.581,7.581,0,0,0-13.927,4.729,11.3,11.3,0,0,0,.315,1.684c.141.573.278,1.121-.218,1.605a1.454,1.454,0,0,1-1.613.172,7.243,7.243,0,0,0-4.686.064,7.382,7.382,0,0,0-5.017,5.73,7.241,7.241,0,0,0,2.377,7.083,7.733,7.733,0,0,0,5.528,1.993c6.061-.016,12.122-.007,18.183,0a5.773,5.773,0,0,1,1.013.063,1.135,1.135,0,0,1,.037,2.22,3.9,3.9,0,0,1-.855.074c-6.139,0-12.279.018-18.418,0a9.96,9.96,0,1,1,.362-19.883C859.54,404.809,859.722,404.8,860.024,404.8Z" transform="translate(-833.541 -382.116)" fill="#fff"/><path d="M929.75,446.488a9.722,9.722,0,0,1-1.763-.026,1.572,1.572,0,0,1-1.051-.619,1.5,1.5,0,0,1,.131-1.283q2.354-3.127,4.847-6.147a1.893,1.893,0,0,1,1.275-.583c2.374-.056,4.751-.059,7.125,0a1.528,1.528,0,0,1,1.158.681,1.578,1.578,0,0,1-.244,1.327c-.911,1.207-1.923,2.337-2.894,3.5-.178.213-.342.438-.623.8.914,0,1.681,0,2.448,0,.645,0,1.209.16,1.414.86a1.266,1.266,0,0,1-.64,1.459q-6.652,4.829-13.3,9.668a1.286,1.286,0,0,1-1.714.136c-.634-.515-.461-1.145-.148-1.77q1.773-3.529,3.538-7.063C929.439,447.18,929.551,446.919,929.75,446.488Zm6.87.185-.058-.185a3.6,3.6,0,0,1-1.053-.021c-.389-.125-.909-.328-1.042-.638a1.632,1.632,0,0,1,.156-1.28,12.953,12.953,0,0,1,1.327-1.638c.728-.867,1.457-1.733,2.313-2.751-1.216,0-2.23.079-3.227-.021a2.492,2.492,0,0,0-2.493,1.161c-.691.955-1.52,1.81-2.4,2.841.458,0,.714,0,.969,0,1.592.009,2.083.785,1.383,2.19-.72,1.446-1.448,2.888-2.167,4.334-.094.19-.157.4-.234.593l.121.075Z" transform="translate(-895.327 -417.768)" fill="#fff"/></g></g></g></svg>